# MagicaVoxel @ Ephtracy

# group
o 

# material
mtllib Tile_001.mtl
usemtl palette

# normals
vn -1 0 0
vn 1 0 0
vn 0 0 1
vn 0 0 -1
vn 0 -1 0
vn 0 1 0

# texcoords
vt 0.0683594 0.5
vt 0.232422 0.5
vt 0.306641 0.5
vt 0.884766 0.5
vt 0.892578 0.5
vt 0.900391 0.5

# verts
v -0.5 0 0.5
v -0.5 0 -0.5
v -0.5 0.1 0.5
v -0.5 0.1 0
v -0.5 0.1 -0.2
v -0.5 0.1 -0.5
v -0.5 0.2 0
v -0.5 0.2 -0.2
v -0.5 0.3 0.3
v -0.5 0.3 0.1
v -0.5 0.3 -0.2
v -0.5 0.3 -0.5
v -0.5 0.4 0.3
v -0.5 0.4 0.1
v -0.5 0.4 -0.2
v -0.5 0.4 -0.5
v -0.5 0.5 0.1
v -0.5 0.5 0
v -0.5 0.5 -0.3
v -0.5 0.5 -0.4
v -0.5 0.6 0.3
v -0.5 0.6 0.1
v -0.5 0.6 -0.2
v -0.5 0.6 -0.3
v -0.5 0.7 0.5
v -0.5 0.7 0.3
v -0.5 0.7 0
v -0.5 0.7 -0.2
v -0.5 0.7 -0.4
v -0.5 0.7 -0.5
v -0.5 1 0.5
v -0.5 1 -0.5
v 0.5 0 0.5
v 0.5 0 -0.5
v 0.5 0.1 0.5
v 0.5 0.1 -0.3
v 0.5 0.1 -0.4
v 0.5 0.1 -0.5
v 0.5 0.2 0.4
v 0.5 0.2 0.3
v 0.5 0.2 0
v 0.5 0.2 -0.1
v 0.5 0.2 -0.3
v 0.5 0.2 -0.4
v 0.5 0.3 0.4
v 0.5 0.3 0.3
v 0.5 0.4 0
v 0.5 0.4 -0.1
v 0.5 0.5 0.3
v 0.5 0.5 0.2
v 0.5 0.5 -0.2
v 0.5 0.5 -0.3
v 0.5 0.6 0.5
v 0.5 0.6 0.4
v 0.5 0.6 0.2
v 0.5 0.6 0.1
v 0.5 0.6 0
v 0.5 0.6 -0.1
v 0.5 0.7 0.4
v 0.5 0.7 0.3
v 0.5 0.7 0.1
v 0.5 0.7 0
v 0.5 0.7 -0.1
v 0.5 0.7 -0.2
v 0.5 0.7 -0.3
v 0.5 0.7 -0.5
v 0.5 1 0.5
v 0.5 1 -0.5
v -0.5 0 0.5
v -0.5 0.1 0.5
v -0.5 0.7 0.5
v -0.5 1 0.5
v -0.4 0.6 0.5
v -0.4 0.7 0.5
v -0.3 0.3 0.5
v -0.3 0.4 0.5
v -0.2 0.4 0.5
v -0.2 0.6 0.5
v -0.2 0.9 0.5
v -0.2 1 0.5
v -0.1 0.3 0.5
v -0.1 0.4 0.5
v -0.1 0.6 0.5
v -0.1 0.9 0.5
v -0.1 1 0.5
v 0 0.6 0.5
v 0 0.7 0.5
v 0.1 0.1 0.5
v 0.1 0.2 0.5
v 0.1 0.5 0.5
v 0.1 0.7 0.5
v 0.2 0.5 0.5
v 0.2 0.6 0.5
v 0.2 0.9 0.5
v 0.2 1 0.5
v 0.3 0.1 0.5
v 0.3 0.2 0.5
v 0.3 0.6 0.5
v 0.3 0.7 0.5
v 0.3 0.9 0.5
v 0.3 1 0.5
v 0.4 0.6 0.5
v 0.4 0.7 0.5
v 0.5 0 0.5
v 0.5 0.1 0.5
v 0.5 0.6 0.5
v 0.5 1 0.5
v -0.5 0 -0.5
v -0.5 0.1 -0.5
v -0.5 0.3 -0.5
v -0.5 0.4 -0.5
v -0.5 0.7 -0.5
v -0.5 1 -0.5
v -0.4 0.3 -0.5
v -0.4 0.4 -0.5
v -0.4 0.5 -0.5
v -0.4 0.7 -0.5
v -0.2 0.2 -0.5
v -0.2 0.3 -0.5
v -0.2 0.5 -0.5
v -0.2 0.7 -0.5
v -0.1 0.6 -0.5
v -0.1 0.7 -0.5
v 0 0.2 -0.5
v 0 0.3 -0.5
v 0 0.5 -0.5
v 0 0.6 -0.5
v 0.1 0.5 -0.5
v 0.1 0.7 -0.5
v 0.2 0.6 -0.5
v 0.2 0.7 -0.5
v 0.3 0.2 -0.5
v 0.3 0.3 -0.5
v 0.3 0.5 -0.5
v 0.3 0.6 -0.5
v 0.4 0.2 -0.5
v 0.4 0.3 -0.5
v 0.4 0.5 -0.5
v 0.4 0.7 -0.5
v 0.5 0 -0.5
v 0.5 0.1 -0.5
v 0.5 0.7 -0.5
v 0.5 1 -0.5
v -0.5 0 0.5
v 0.5 0 0.5
v -0.5 0 -0.5
v 0.5 0 -0.5
v -0.5 1 0.5
v -0.2 1 0.5
v -0.1 1 0.5
v 0.2 1 0.5
v 0.3 1 0.5
v 0.5 1 0.5
v -0.2 1 0.4
v -0.1 1 0.4
v 0.2 1 0.3
v 0.3 1 0.3
v -0.2 1 0.2
v -0.1 1 0.2
v 0.2 1 0.2
v 0.3 1 0.2
v -0.2 1 0
v -0.1 1 0
v 0.2 1 0
v 0.3 1 0
v -0.3 1 -0.1
v -0.2 1 -0.1
v 0.1 1 -0.1
v 0.2 1 -0.1
v 0.3 1 -0.2
v 0.4 1 -0.2
v 0.1 1 -0.3
v 0.2 1 -0.3
v 0.3 1 -0.3
v 0.4 1 -0.3
v -0.3 1 -0.4
v -0.2 1 -0.4
v -0.5 1 -0.5
v 0.5 1 -0.5

# faces
f 3/2/1 2/2/1 1/2/1
f 4/2/1 2/2/1 3/2/1
f 5/2/1 2/2/1 4/2/1
f 6/2/1 2/2/1 5/2/1
f 7/1/1 4/1/1 3/1/1
f 7/2/1 5/2/1 4/2/1
f 8/1/1 6/1/1 5/1/1
f 8/2/1 5/2/1 7/2/1
f 9/1/1 7/1/1 3/1/1
f 9/1/1 8/1/1 7/1/1
f 10/1/1 8/1/1 9/1/1
f 11/1/1 6/1/1 8/1/1
f 11/1/1 8/1/1 10/1/1
f 12/1/1 6/1/1 11/1/1
f 13/2/1 10/2/1 9/2/1
f 13/1/1 9/1/1 3/1/1
f 14/1/1 11/1/1 10/1/1
f 14/2/1 10/2/1 13/2/1
f 15/2/1 12/2/1 11/2/1
f 15/1/1 11/1/1 14/1/1
f 16/2/1 12/2/1 15/2/1
f 17/1/1 14/1/1 13/1/1
f 17/1/1 15/1/1 14/1/1
f 17/1/1 16/1/1 15/1/1
f 18/1/1 16/1/1 17/1/1
f 19/1/1 16/1/1 18/1/1
f 20/1/1 16/1/1 19/1/1
f 21/1/1 13/1/1 3/1/1
f 21/1/1 17/1/1 13/1/1
f 22/4/1 18/4/1 17/4/1
f 22/1/1 17/1/1 21/1/1
f 23/1/1 19/1/1 18/1/1
f 24/4/1 20/4/1 19/4/1
f 24/1/1 19/1/1 23/1/1
f 25/1/1 21/1/1 3/1/1
f 26/4/1 22/4/1 21/4/1
f 26/1/1 21/1/1 25/1/1
f 27/1/1 23/1/1 18/1/1
f 27/4/1 22/4/1 26/4/1
f 27/4/1 18/4/1 22/4/1
f 28/4/1 24/4/1 23/4/1
f 28/1/1 23/1/1 27/1/1
f 29/1/1 16/1/1 20/1/1
f 29/4/1 24/4/1 28/4/1
f 29/4/1 20/4/1 24/4/1
f 30/1/1 16/1/1 29/1/1
f 31/4/1 28/4/1 27/4/1
f 31/4/1 26/4/1 25/4/1
f 31/4/1 30/4/1 29/4/1
f 31/4/1 29/4/1 28/4/1
f 31/4/1 27/4/1 26/4/1
f 32/4/1 30/4/1 31/4/1
f 33/2/2 34/2/2 35/2/2
f 35/2/2 34/2/2 36/2/2
f 36/2/2 34/2/2 37/2/2
f 37/2/2 34/2/2 38/2/2
f 35/1/2 36/1/2 39/1/2
f 39/1/2 36/1/2 40/1/2
f 40/1/2 36/1/2 41/1/2
f 41/1/2 36/1/2 42/1/2
f 36/2/2 37/2/2 43/2/2
f 42/1/2 36/1/2 43/1/2
f 37/1/2 38/1/2 44/1/2
f 43/2/2 37/2/2 44/2/2
f 35/1/2 39/1/2 45/1/2
f 39/2/2 40/2/2 45/2/2
f 40/1/2 41/1/2 46/1/2
f 45/2/2 40/2/2 46/2/2
f 41/2/2 42/2/2 47/2/2
f 46/1/2 41/1/2 47/1/2
f 45/1/2 46/1/2 47/1/2
f 42/1/2 43/1/2 48/1/2
f 47/2/2 42/2/2 48/2/2
f 43/1/2 44/1/2 48/1/2
f 45/1/2 47/1/2 49/1/2
f 47/1/2 48/1/2 49/1/2
f 49/1/2 48/1/2 50/1/2
f 48/1/2 44/1/2 51/1/2
f 50/1/2 48/1/2 51/1/2
f 51/1/2 44/1/2 52/1/2
f 35/1/2 45/1/2 53/1/2
f 45/1/2 49/1/2 53/1/2
f 53/1/2 49/1/2 54/1/2
f 49/4/2 50/4/2 55/4/2
f 50/1/2 51/1/2 55/1/2
f 55/1/2 51/1/2 56/1/2
f 56/1/2 51/1/2 57/1/2
f 57/1/2 51/1/2 58/1/2
f 54/1/2 49/1/2 59/1/2
f 53/4/2 54/4/2 59/4/2
f 49/4/2 55/4/2 60/4/2
f 59/1/2 49/1/2 60/1/2
f 55/4/2 56/4/2 60/4/2
f 56/1/2 57/1/2 61/1/2
f 60/4/2 56/4/2 61/4/2
f 57/4/2 58/4/2 62/4/2
f 61/1/2 57/1/2 62/1/2
f 58/1/2 51/1/2 63/1/2
f 62/4/2 58/4/2 63/4/2
f 51/4/2 52/4/2 64/4/2
f 63/1/2 51/1/2 64/1/2
f 52/1/2 44/1/2 65/1/2
f 64/4/2 52/4/2 65/4/2
f 44/1/2 38/1/2 66/1/2
f 65/1/2 44/1/2 66/1/2
f 63/4/2 64/4/2 67/4/2
f 61/4/2 62/4/2 67/4/2
f 65/4/2 66/4/2 67/4/2
f 59/4/2 60/4/2 67/4/2
f 53/4/2 59/4/2 67/4/2
f 64/4/2 65/4/2 67/4/2
f 60/4/2 61/4/2 67/4/2
f 62/4/2 63/4/2 67/4/2
f 67/4/2 66/4/2 68/4/2
f 73/1/3 71/1/3 70/1/3
f 74/4/3 72/4/3 71/4/3
f 74/1/3 71/1/3 73/1/3
f 75/1/3 73/1/3 70/1/3
f 76/1/3 73/1/3 75/1/3
f 77/2/3 76/2/3 75/2/3
f 77/1/3 73/1/3 76/1/3
f 78/4/3 74/4/3 73/4/3
f 78/1/3 73/1/3 77/1/3
f 79/4/3 72/4/3 74/4/3
f 79/4/3 74/4/3 78/4/3
f 80/4/3 72/4/3 79/4/3
f 81/2/3 77/2/3 75/2/3
f 81/1/3 75/1/3 70/1/3
f 82/4/3 78/4/3 77/4/3
f 82/2/3 77/2/3 81/2/3
f 82/4/3 79/4/3 78/4/3
f 83/4/3 79/4/3 82/4/3
f 84/6/3 80/6/3 79/6/3
f 84/4/3 79/4/3 83/4/3
f 85/6/3 80/6/3 84/6/3
f 86/1/3 83/1/3 82/1/3
f 86/1/3 82/1/3 81/1/3
f 86/4/3 85/4/3 84/4/3
f 86/4/3 84/4/3 83/4/3
f 87/4/3 85/4/3 86/4/3
f 88/2/3 70/2/3 69/2/3
f 88/1/3 81/1/3 70/1/3
f 88/1/3 87/1/3 86/1/3
f 88/1/3 86/1/3 81/1/3
f 89/1/3 87/1/3 88/1/3
f 90/1/3 87/1/3 89/1/3
f 91/4/3 85/4/3 87/4/3
f 91/1/3 87/1/3 90/1/3
f 92/1/3 90/1/3 89/1/3
f 92/4/3 91/4/3 90/4/3
f 93/4/3 91/4/3 92/4/3
f 94/4/3 85/4/3 91/4/3
f 94/4/3 91/4/3 93/4/3
f 95/4/3 85/4/3 94/4/3
f 96/2/3 88/2/3 69/2/3
f 96/2/3 89/2/3 88/2/3
f 97/1/3 93/1/3 92/1/3
f 97/2/3 89/2/3 96/2/3
f 97/1/3 92/1/3 89/1/3
f 98/4/3 94/4/3 93/4/3
f 98/1/3 93/1/3 97/1/3
f 99/4/3 94/4/3 98/4/3
f 100/6/3 95/6/3 94/6/3
f 100/4/3 94/4/3 99/4/3
f 101/6/3 95/6/3 100/6/3
f 102/1/3 99/1/3 98/1/3
f 102/1/3 97/1/3 96/1/3
f 102/1/3 98/1/3 97/1/3
f 103/4/3 101/4/3 100/4/3
f 103/1/3 99/1/3 102/1/3
f 103/4/3 100/4/3 99/4/3
f 104/2/3 96/2/3 69/2/3
f 105/1/3 102/1/3 96/1/3
f 105/2/3 96/2/3 104/2/3
f 106/4/3 103/4/3 102/4/3
f 106/1/3 102/1/3 105/1/3
f 107/4/3 101/4/3 103/4/3
f 107/4/3 103/4/3 106/4/3
f 109/1/4 110/1/4 114/1/4
f 110/2/4 111/2/4 114/2/4
f 111/1/4 112/1/4 115/1/4
f 114/2/4 111/2/4 115/2/4
f 115/1/4 112/1/4 116/1/4
f 112/4/4 113/4/4 117/4/4
f 116/1/4 112/1/4 117/1/4
f 115/1/4 116/1/4 118/1/4
f 109/1/4 114/1/4 118/1/4
f 114/1/4 115/1/4 118/1/4
f 118/1/4 116/1/4 119/1/4
f 116/4/4 117/4/4 120/4/4
f 119/1/4 116/1/4 120/1/4
f 117/4/4 113/4/4 121/4/4
f 120/4/4 117/4/4 121/4/4
f 119/1/4 120/1/4 122/1/4
f 120/1/4 121/1/4 122/1/4
f 121/4/4 113/4/4 123/4/4
f 122/1/4 121/1/4 123/1/4
f 118/2/4 119/2/4 124/2/4
f 109/1/4 118/1/4 124/1/4
f 119/1/4 122/1/4 125/1/4
f 124/2/4 119/2/4 125/2/4
f 125/1/4 122/1/4 126/1/4
f 122/4/4 123/4/4 127/4/4
f 126/1/4 122/1/4 127/1/4
f 125/1/4 126/1/4 128/1/4
f 124/1/4 125/1/4 128/1/4
f 126/4/4 127/4/4 128/4/4
f 123/4/4 113/4/4 129/4/4
f 128/4/4 127/4/4 129/4/4
f 127/4/4 123/4/4 129/4/4
f 128/1/4 129/1/4 130/1/4
f 129/4/4 113/4/4 131/4/4
f 130/1/4 129/1/4 131/1/4
f 109/1/4 124/1/4 132/1/4
f 124/1/4 128/1/4 132/1/4
f 128/1/4 130/1/4 132/1/4
f 132/1/4 130/1/4 133/1/4
f 133/1/4 130/1/4 134/1/4
f 130/4/4 131/4/4 135/4/4
f 134/1/4 130/1/4 135/1/4
f 109/1/4 132/1/4 136/1/4
f 132/2/4 133/2/4 136/2/4
f 133/1/4 134/1/4 137/1/4
f 136/2/4 133/2/4 137/2/4
f 134/4/4 135/4/4 138/4/4
f 137/1/4 134/1/4 138/1/4
f 131/4/4 113/4/4 139/4/4
f 138/4/4 135/4/4 139/4/4
f 135/4/4 131/4/4 139/4/4
f 108/2/4 109/2/4 140/2/4
f 137/1/4 138/1/4 141/1/4
f 140/2/4 109/2/4 141/2/4
f 109/1/4 136/1/4 141/1/4
f 138/1/4 139/1/4 141/1/4
f 136/1/4 137/1/4 141/1/4
f 139/4/4 113/4/4 142/4/4
f 141/1/4 139/1/4 142/1/4
f 142/4/4 113/4/4 143/4/4
f 146/2/5 145/2/5 144/2/5
f 147/2/5 145/2/5 146/2/5
f 148/4/6 149/4/6 154/4/6
f 149/6/6 150/6/6 154/6/6
f 150/4/6 151/4/6 155/4/6
f 154/6/6 150/6/6 155/6/6
f 151/6/6 152/6/6 156/6/6
f 155/4/6 151/4/6 156/4/6
f 154/4/6 155/4/6 156/4/6
f 152/4/6 153/4/6 157/4/6
f 156/6/6 152/6/6 157/6/6
f 154/4/6 156/4/6 158/4/6
f 148/4/6 154/4/6 158/4/6
f 156/4/6 157/4/6 158/4/6
f 158/4/6 157/4/6 159/4/6
f 159/4/6 157/4/6 160/4/6
f 157/4/6 153/4/6 161/4/6
f 160/4/6 157/4/6 161/4/6
f 148/4/6 158/4/6 162/4/6
f 158/5/6 159/5/6 162/5/6
f 159/4/6 160/4/6 163/4/6
f 162/5/6 159/5/6 163/5/6
f 160/5/6 161/5/6 164/5/6
f 163/4/6 160/4/6 164/4/6
f 161/4/6 153/4/6 165/4/6
f 164/5/6 161/5/6 165/5/6
f 148/4/6 162/4/6 166/4/6
f 163/4/6 164/4/6 166/4/6
f 164/4/6 165/4/6 166/4/6
f 162/4/6 163/4/6 166/4/6
f 166/4/6 165/4/6 167/4/6
f 167/4/6 165/4/6 168/4/6
f 168/4/6 165/4/6 169/4/6
f 165/4/6 153/4/6 170/4/6
f 169/4/6 165/4/6 170/4/6
f 170/4/6 153/4/6 171/4/6
f 168/5/6 169/5/6 172/5/6
f 167/4/6 168/4/6 172/4/6
f 169/4/6 170/4/6 173/4/6
f 172/5/6 169/5/6 173/5/6
f 170/6/6 171/6/6 174/6/6
f 173/4/6 170/4/6 174/4/6
f 171/4/6 153/4/6 175/4/6
f 174/6/6 171/6/6 175/6/6
f 148/4/6 166/4/6 176/4/6
f 166/5/6 167/5/6 176/5/6
f 173/4/6 174/4/6 177/4/6
f 176/5/6 167/5/6 177/5/6
f 174/4/6 175/4/6 177/4/6
f 167/4/6 172/4/6 177/4/6
f 172/4/6 173/4/6 177/4/6
f 148/4/6 176/4/6 178/4/6
f 176/4/6 177/4/6 178/4/6
f 177/4/6 175/4/6 179/4/6
f 178/4/6 177/4/6 179/4/6
f 175/4/6 153/4/6 179/4/6
