# MagicaVoxel @ Ephtracy

# group
o 

# material
mtllib PlayerBody.mtl
usemtl palette

# normals
vn -1 0 0
vn 1 0 0
vn 0 0 1
vn 0 0 -1
vn 0 -1 0
vn 0 1 0

# texcoords
vt 0.845703 0.5
vt 0.884766 0.5
vt 0.892578 0.5
vt 0.900391 0.5
vt 0.974609 0.5

# verts
v -0.4 0 0.5
v -0.4 0 -0.5
v -0.4 0.1 0.4
v -0.4 0.1 -0.4
v -0.4 0.2 0.4
v -0.4 0.2 -0.4
v -0.4 0.3 0.5
v -0.4 0.3 -0.5
v -0.3 0.1 0.4
v -0.3 0.1 -0.4
v -0.3 0.2 0.4
v -0.3 0.2 -0.4
v -0.3 0.3 0.3
v -0.3 0.3 -0.3
v -0.3 0.4 0.3
v -0.3 0.4 -0.3
v -0.3 0.5 0.3
v -0.3 0.5 0.2
v -0.3 0.5 -0.2
v -0.3 0.5 -0.3
v -0.3 0.6 0.2
v -0.3 0.6 -0.2
v -0.2 0.6 0.1
v -0.2 0.6 -0.2
v -0.2 0.7 0.1
v -0.2 0.7 -0.2
v -0.1 0.6 0.2
v -0.1 0.6 0.1
v -0.1 0.7 0.2
v -0.1 0.7 0.1
v 0.1 0.6 0.2
v 0.1 0.6 0.1
v 0.1 0.7 0.2
v 0.1 0.7 0.1
v 0.2 0.6 0.1
v 0.2 0.6 -0.2
v 0.2 0.7 0.1
v 0.2 0.7 -0.2
v 0.3 0.1 0.4
v 0.3 0.1 -0.4
v 0.3 0.2 0.4
v 0.3 0.2 -0.4
v 0.3 0.3 0.3
v 0.3 0.3 -0.3
v 0.3 0.4 0.3
v 0.3 0.4 -0.3
v 0.3 0.5 0.3
v 0.3 0.5 0.2
v 0.3 0.5 -0.2
v 0.3 0.5 -0.3
v 0.3 0.6 0.2
v 0.3 0.6 -0.2
v 0.4 0 0.5
v 0.4 0 -0.5
v 0.4 0.1 0.4
v 0.4 0.1 -0.4
v 0.4 0.2 0.4
v 0.4 0.2 -0.4
v 0.4 0.3 0.5
v 0.4 0.3 -0.5
v -0.4 0 0.5
v -0.4 0.3 0.5
v -0.3 0 0.5
v -0.3 0.3 0.5
v 0.3 0 0.5
v 0.3 0.3 0.5
v 0.4 0 0.5
v 0.4 0.3 0.5
v -0.3 0.3 0.3
v -0.3 0.4 0.3
v -0.3 0.5 0.3
v 0.3 0.3 0.3
v 0.3 0.4 0.3
v 0.3 0.5 0.3
v -0.3 0.5 0.2
v -0.3 0.6 0.2
v -0.1 0.5 0.2
v -0.1 0.6 0.2
v -0.1 0.7 0.2
v 0.1 0.5 0.2
v 0.1 0.6 0.2
v 0.1 0.7 0.2
v 0.3 0.5 0.2
v 0.3 0.6 0.2
v -0.2 0.6 0.1
v -0.2 0.7 0.1
v -0.1 0.6 0.1
v -0.1 0.7 0.1
v 0.1 0.6 0.1
v 0.1 0.7 0.1
v 0.2 0.6 0.1
v 0.2 0.7 0.1
v -0.4 0.1 -0.4
v -0.4 0.2 -0.4
v -0.3 0.1 -0.4
v -0.3 0.2 -0.4
v 0.3 0.1 -0.4
v 0.3 0.2 -0.4
v 0.4 0.1 -0.4
v 0.4 0.2 -0.4
v -0.4 0.1 0.4
v -0.4 0.2 0.4
v -0.3 0.1 0.4
v -0.3 0.2 0.4
v 0.3 0.1 0.4
v 0.3 0.2 0.4
v 0.4 0.1 0.4
v 0.4 0.2 0.4
v -0.3 0.5 -0.2
v -0.3 0.6 -0.2
v -0.2 0.5 -0.2
v -0.2 0.6 -0.2
v -0.2 0.7 -0.2
v 0.2 0.5 -0.2
v 0.2 0.6 -0.2
v 0.2 0.7 -0.2
v 0.3 0.5 -0.2
v 0.3 0.6 -0.2
v -0.3 0.3 -0.3
v -0.3 0.4 -0.3
v -0.3 0.5 -0.3
v 0.3 0.3 -0.3
v 0.3 0.4 -0.3
v 0.3 0.5 -0.3
v -0.4 0 -0.5
v -0.4 0.3 -0.5
v -0.3 0 -0.5
v -0.3 0.1 -0.5
v -0.3 0.2 -0.5
v -0.3 0.3 -0.5
v -0.1 0.1 -0.5
v -0.1 0.2 -0.5
v 0.1 0.1 -0.5
v 0.1 0.2 -0.5
v 0.3 0 -0.5
v 0.3 0.1 -0.5
v 0.3 0.2 -0.5
v 0.3 0.3 -0.5
v 0.4 0 -0.5
v 0.4 0.3 -0.5
v -0.4 0 0.5
v -0.3 0 0.5
v 0.3 0 0.5
v 0.4 0 0.5
v -0.4 0 -0.5
v -0.3 0 -0.5
v 0.3 0 -0.5
v 0.4 0 -0.5
v -0.4 0.2 0.4
v -0.3 0.2 0.4
v 0.3 0.2 0.4
v 0.4 0.2 0.4
v -0.4 0.2 -0.4
v -0.3 0.2 -0.4
v 0.3 0.2 -0.4
v 0.4 0.2 -0.4
v -0.4 0.1 0.4
v -0.3 0.1 0.4
v 0.3 0.1 0.4
v 0.4 0.1 0.4
v -0.4 0.1 -0.4
v -0.3 0.1 -0.4
v 0.3 0.1 -0.4
v 0.4 0.1 -0.4
v -0.4 0.3 0.5
v -0.3 0.3 0.5
v 0.3 0.3 0.5
v 0.4 0.3 0.5
v -0.3 0.3 0.3
v 0.3 0.3 0.3
v -0.3 0.3 -0.3
v 0.3 0.3 -0.3
v -0.4 0.3 -0.5
v -0.3 0.3 -0.5
v 0.3 0.3 -0.5
v 0.4 0.3 -0.5
v -0.3 0.5 0.3
v 0.3 0.5 0.3
v -0.3 0.5 0.2
v -0.1 0.5 0.2
v 0.1 0.5 0.2
v 0.3 0.5 0.2
v -0.3 0.5 -0.2
v -0.2 0.5 -0.2
v 0.2 0.5 -0.2
v 0.3 0.5 -0.2
v -0.3 0.5 -0.3
v 0.3 0.5 -0.3
v -0.3 0.6 0.2
v -0.1 0.6 0.2
v 0.1 0.6 0.2
v 0.3 0.6 0.2
v -0.2 0.6 0.1
v -0.1 0.6 0.1
v 0.1 0.6 0.1
v 0.2 0.6 0.1
v -0.3 0.6 -0.2
v -0.2 0.6 -0.2
v 0.2 0.6 -0.2
v 0.3 0.6 -0.2
v -0.1 0.7 0.2
v 0.1 0.7 0.2
v -0.2 0.7 0.1
v -0.1 0.7 0.1
v 0.1 0.7 0.1
v 0.2 0.7 0.1
v -0.2 0.7 -0.2
v 0.2 0.7 -0.2

# faces
f 3/5/1 2/5/1 1/5/1
f 4/5/1 2/5/1 3/5/1
f 5/5/1 3/5/1 1/5/1
f 6/5/1 2/5/1 4/5/1
f 7/5/1 5/5/1 1/5/1
f 7/5/1 6/5/1 5/5/1
f 8/5/1 2/5/1 6/5/1
f 8/5/1 6/5/1 7/5/1
f 11/4/1 10/4/1 9/4/1
f 12/4/1 10/4/1 11/4/1
f 15/3/1 14/3/1 13/3/1
f 16/3/1 14/3/1 15/3/1
f 17/2/1 16/2/1 15/2/1
f 18/2/1 16/2/1 17/2/1
f 19/2/1 16/2/1 18/2/1
f 20/2/1 16/2/1 19/2/1
f 21/3/1 19/3/1 18/3/1
f 22/3/1 19/3/1 21/3/1
f 25/2/1 24/2/1 23/2/1
f 26/2/1 24/2/1 25/2/1
f 29/2/1 28/2/1 27/2/1
f 30/2/1 28/2/1 29/2/1
f 31/2/2 32/2/2 33/2/2
f 33/2/2 32/2/2 34/2/2
f 35/2/2 36/2/2 37/2/2
f 37/2/2 36/2/2 38/2/2
f 39/4/2 40/4/2 41/4/2
f 41/4/2 40/4/2 42/4/2
f 43/3/2 44/3/2 45/3/2
f 45/3/2 44/3/2 46/3/2
f 45/2/2 46/2/2 47/2/2
f 47/2/2 46/2/2 48/2/2
f 48/2/2 46/2/2 49/2/2
f 49/2/2 46/2/2 50/2/2
f 48/3/2 49/3/2 51/3/2
f 51/3/2 49/3/2 52/3/2
f 53/5/2 54/5/2 55/5/2
f 55/5/2 54/5/2 56/5/2
f 53/5/2 55/5/2 57/5/2
f 56/5/2 54/5/2 58/5/2
f 53/5/2 57/5/2 59/5/2
f 57/5/2 58/5/2 59/5/2
f 58/5/2 54/5/2 60/5/2
f 59/5/2 58/5/2 60/5/2
f 63/5/3 62/5/3 61/5/3
f 64/5/3 62/5/3 63/5/3
f 65/2/3 64/2/3 63/2/3
f 66/2/3 64/2/3 65/2/3
f 67/5/3 66/5/3 65/5/3
f 68/5/3 66/5/3 67/5/3
f 72/3/3 70/3/3 69/3/3
f 73/2/3 71/2/3 70/2/3
f 73/3/3 70/3/3 72/3/3
f 74/2/3 71/2/3 73/2/3
f 77/3/3 76/3/3 75/3/3
f 78/3/3 76/3/3 77/3/3
f 80/2/3 78/2/3 77/2/3
f 80/2/3 79/2/3 78/2/3
f 81/2/3 79/2/3 80/2/3
f 82/2/3 79/2/3 81/2/3
f 83/3/3 81/3/3 80/3/3
f 84/3/3 81/3/3 83/3/3
f 87/2/3 86/2/3 85/2/3
f 88/2/3 86/2/3 87/2/3
f 91/2/3 90/2/3 89/2/3
f 92/2/3 90/2/3 91/2/3
f 95/5/3 94/5/3 93/5/3
f 96/5/3 94/5/3 95/5/3
f 99/5/3 98/5/3 97/5/3
f 100/5/3 98/5/3 99/5/3
f 101/5/4 102/5/4 103/5/4
f 103/5/4 102/5/4 104/5/4
f 105/5/4 106/5/4 107/5/4
f 107/5/4 106/5/4 108/5/4
f 109/3/4 110/3/4 111/3/4
f 111/3/4 110/3/4 112/3/4
f 111/2/4 112/2/4 114/2/4
f 112/2/4 113/2/4 114/2/4
f 114/2/4 113/2/4 115/2/4
f 115/2/4 113/2/4 116/2/4
f 114/3/4 115/3/4 117/3/4
f 117/3/4 115/3/4 118/3/4
f 119/3/4 120/3/4 122/3/4
f 120/2/4 121/2/4 123/2/4
f 122/3/4 120/3/4 123/3/4
f 123/2/4 121/2/4 124/2/4
f 125/5/4 126/5/4 127/5/4
f 127/5/4 126/5/4 128/5/4
f 128/5/4 126/5/4 129/5/4
f 129/5/4 126/5/4 130/5/4
f 127/2/4 128/2/4 131/2/4
f 128/1/4 129/1/4 131/1/4
f 129/2/4 130/2/4 132/2/4
f 131/1/4 129/1/4 132/1/4
f 127/2/4 131/2/4 133/2/4
f 131/2/4 132/2/4 133/2/4
f 132/2/4 130/2/4 134/2/4
f 133/2/4 132/2/4 134/2/4
f 127/2/4 133/2/4 135/2/4
f 133/1/4 134/1/4 136/1/4
f 135/2/4 133/2/4 136/2/4
f 134/2/4 130/2/4 137/2/4
f 136/1/4 134/1/4 137/1/4
f 137/2/4 130/2/4 138/2/4
f 135/5/4 136/5/4 139/5/4
f 136/5/4 137/5/4 139/5/4
f 137/5/4 138/5/4 139/5/4
f 139/5/4 138/5/4 140/5/4
f 145/5/5 142/5/5 141/5/5
f 146/2/5 143/2/5 142/2/5
f 146/5/5 142/5/5 145/5/5
f 147/5/5 144/5/5 143/5/5
f 147/2/5 143/2/5 146/2/5
f 148/5/5 144/5/5 147/5/5
f 153/5/5 150/5/5 149/5/5
f 154/5/5 150/5/5 153/5/5
f 155/5/5 152/5/5 151/5/5
f 156/5/5 152/5/5 155/5/5
f 157/5/6 158/5/6 161/5/6
f 161/5/6 158/5/6 162/5/6
f 159/5/6 160/5/6 163/5/6
f 163/5/6 160/5/6 164/5/6
f 165/5/6 166/5/6 169/5/6
f 166/2/6 167/2/6 169/2/6
f 167/5/6 168/5/6 170/5/6
f 169/2/6 167/2/6 170/2/6
f 165/5/6 169/5/6 171/5/6
f 170/5/6 168/5/6 172/5/6
f 165/5/6 171/5/6 173/5/6
f 171/2/6 172/2/6 174/2/6
f 173/5/6 171/5/6 174/5/6
f 172/5/6 168/5/6 175/5/6
f 174/2/6 172/2/6 175/2/6
f 175/5/6 168/5/6 176/5/6
f 177/2/6 178/2/6 179/2/6
f 179/2/6 178/2/6 180/2/6
f 180/2/6 178/2/6 181/2/6
f 181/2/6 178/2/6 182/2/6
f 183/2/6 184/2/6 187/2/6
f 185/2/6 186/2/6 187/2/6
f 184/2/6 185/2/6 187/2/6
f 187/2/6 186/2/6 188/2/6
f 189/3/6 190/3/6 193/3/6
f 193/3/6 190/3/6 194/3/6
f 191/3/6 192/3/6 195/3/6
f 195/3/6 192/3/6 196/3/6
f 189/3/6 193/3/6 197/3/6
f 197/3/6 193/3/6 198/3/6
f 196/3/6 192/3/6 199/3/6
f 199/3/6 192/3/6 200/3/6
f 201/2/6 202/2/6 204/2/6
f 204/2/6 202/2/6 205/2/6
f 203/2/6 204/2/6 207/2/6
f 205/2/6 206/2/6 207/2/6
f 204/2/6 205/2/6 207/2/6
f 207/2/6 206/2/6 208/2/6
